P2
1 3
29
10 
7 
29 
